<?xml version="1.0" encoding="UTF-8" standalone="no"?>
<!-- Created with Inkscape (http://www.inkscape.org/) -->

<svg
   xmlns:dc="http://purl.org/dc/elements/1.1/"
   xmlns:cc="http://creativecommons.org/ns#"
   xmlns:rdf="http://www.w3.org/1999/02/22-rdf-syntax-ns#"
   xmlns:svg="http://www.w3.org/2000/svg"
   xmlns="http://www.w3.org/2000/svg"
   xmlns:sodipodi="http://sodipodi.sourceforge.net/DTD/sodipodi-0.dtd"
   xmlns:inkscape="http://www.inkscape.org/namespaces/inkscape"
   width="161mm"
   height="161mm"
   viewBox="0 0 161 161"
   version="1.1"
   id="svg860"
   inkscape:version="0.92.4 (5da689c313, 2019-01-14)"
   sodipodi:docname="W_ONLY_WEELGO_FINAL_V1.svg">
  <defs
     id="defs854" />
  <sodipodi:namedview
     id="base"
     pagecolor="#ffffff"
     bordercolor="#666666"
     borderopacity="1.0"
     inkscape:pageopacity="0.0"
     inkscape:pageshadow="2"
     inkscape:zoom="0.98994949"
     inkscape:cx="160.95746"
     inkscape:cy="277.90791"
     inkscape:document-units="mm"
     inkscape:current-layer="layer1"
     showgrid="false"
     inkscape:showpageshadow="false"
     inkscape:window-width="1828"
     inkscape:window-height="1057"
     inkscape:window-x="-8"
     inkscape:window-y="-8"
     inkscape:window-maximized="1" />
  <metadata
     id="metadata857">
    <rdf:RDF>
      <cc:Work
         rdf:about="">
        <dc:format>image/svg+xml</dc:format>
        <dc:type
           rdf:resource="http://purl.org/dc/dcmitype/StillImage" />
        <dc:title></dc:title>
      </cc:Work>
    </rdf:RDF>
  </metadata>
  <g
     inkscape:label="Calque 1"
     inkscape:groupmode="layer"
     id="layer1"
     transform="translate(0,-136)">
    <path
       inkscape:connector-curvature="0"
       class="cls-2"
       d="m 80.641888,136.56847 c -43.990548,0 -79.78176485,35.78854 -79.78176485,79.78176 0,43.99323 35.78855485,79.78178 79.78176485,79.78178 43.993202,0 79.781762,-35.78855 79.781762,-79.77379 0,-43.9852 -35.79122,-79.78975 -79.781762,-79.78975 z m 61.474962,35.45057 c -2.23541,1.63401 -5.88135,4.25801 -7.93849,5.82813 l -3.96528,3.00987 c -2.80762,2.12902 -3.56342,2.70118 -4.94461,3.85884 -3.72576,3.12164 -6.35774,5.76165 -8.10352,7.51271 -2.52819,2.5335 -5.08566,5.30389 -7.20668,7.79484 -0.59346,0.69726 -1.07781,1.2827 -1.50361,1.807 -0.15701,-1.31199 -0.35395,-2.9274 -0.6041,-4.94731 -0.1996,-1.61536 -0.33799,-2.78366 -0.44177,-3.66721 -0.26613,-2.34984 -0.32734,-2.77302 -0.64935,-4.0717 -0.31136,-1.25346 -0.47104,-2.11306 -0.62539,-2.92737 -0.17033,-0.91549 -0.33266,-1.77507 -0.65467,-2.99924 -0.51362,-1.96402 -2.05715,-5.40504 -3.06045,-6.81545 a 12.103388,12.103388 0 0 0 -3.621957,-3.29732 11.29969,11.29969 0 0 0 -4.20212,-1.72183 c -2.80763,-0.47905 -5.05639,0.40717 -6.15549,0.83828 -2.049169,0.79838 -3.613986,1.92942 -6.44556,4.61727 a 71.526551,71.526551 0 0 0 -6.836764,7.28654 c -2.051828,2.5122 -3.387776,4.44961 -5.601944,7.6644 -0.955387,1.38388 -2.363192,3.45959 -4.819531,7.30512 -3.587372,5.60996 -5.500812,8.60123 -7.01507,11.31303 l -0.06919,-0.22887 c -1.277404,-4.27132 -2.456337,-7.56597 -4.090348,-12.12733 -2.961979,-8.27387 -5.567349,-14.76997 -6.55201,-17.17839 -3.23343,-7.92789 -7.536674,-17.53772 -11.390174,-25.48424 a 75.419971,75.419971 0 0 1 45.023116,-14.86043 c 25.268612,0 47.687012,12.42806 61.472312,31.49066 z m -84.316515,55.83313 c 0.769101,3.45964 2.05981,9.21857 2.270051,15.41664 a 16.765907,16.765907 0 0 1 -1.15765,6.85808 c -0.409832,1.0219 -1.10708,2.42438 -2.089081,3.30793 -0.532249,0.47101 -1.745785,1.57543 -3.518181,1.65531 -1.727155,0.0399 -3.017861,-0.85955 -3.50221,-1.21086 -2.067798,-1.50101 -2.610691,-3.78963 -2.842226,-4.76901 -0.439105,-1.86285 -0.196929,-3.32391 0.308708,-5.96651 a 34.681475,34.681475 0 0 1 2.333922,-7.40628 63.454968,63.454968 0 0 1 3.563418,-7.03101 c 0.532255,-0.92615 1.085792,-1.91876 1.719173,-3.0924 0.707893,-1.31199 1.250791,-2.36855 1.681911,-3.26003 0.332661,1.46899 0.697251,3.10298 1.112407,4.95524 z m 22.841553,64.3199 c -41.810982,0 -75.8244739,-34.01354 -75.8244739,-75.81385 0,-23.48293 10.7301769,-44.50418 27.5466439,-58.42253 3.725754,7.71763 7.81078,16.87502 10.911144,24.46491 0.974024,2.39516 3.552775,8.81406 6.488139,17.01339 1.67127,4.6705 2.775691,7.75491 4.023818,11.92509 0.441772,1.47965 0.835636,2.90875 1.232164,4.46294 -0.218225,0.50564 -0.404508,0.96602 -0.590801,1.4211 a 56.128531,56.128531 0 0 1 -3.089717,6.48012 c -0.620072,1.14702 -1.168291,2.12905 -1.681914,3.02588 a 67.422895,67.422895 0 0 0 -3.757692,7.42493 38.891583,38.891583 0 0 0 -2.5894,8.24989 c -0.532252,2.71979 -0.931439,4.87008 -0.266123,7.65908 0.266123,1.16827 1.120383,4.72369 4.399052,7.10285 0.721199,0.53226 2.906094,2.12902 6.059681,1.97734 3.220114,-0.14637 5.26928,-1.99597 6.041046,-2.69053 1.248132,-1.12575 2.299327,-2.74108 3.12964,-4.79025 a 20.77908,20.77908 0 0 0 1.44772,-8.50008 c -0.223544,-6.57858 -1.56482,-12.57708 -2.365856,-16.16444 L 61.6352,226.46568 c -0.979339,-4.38047 -1.687234,-7.54208 -2.349886,-10.2565 0.409834,-0.87024 0.939427,-1.91611 1.692561,-3.29731 1.500944,-2.74373 3.39576,-5.70839 7.185387,-11.61638 2.421745,-3.78698 3.805595,-5.82813 4.742358,-7.18539 2.155613,-3.12962 3.45963,-5.01647 5.405008,-7.40093 a 68.074908,68.074908 0 0 1 6.490801,-6.91927 c 2.695844,-2.56013 3.805594,-3.26004 5.144204,-3.78695 0.91813,-0.35928 2.30465,-0.89953 3.99189,-0.61474 a 7.4834496,7.4834496 0 0 1 2.7544,1.17626 8.1993272,8.1993272 0 0 1 2.46165,2.20618 c 0.66,0.92876 2.035857,3.92797 2.445687,5.49814 0.29008,1.10974 0.43645,1.89217 0.59081,2.72246 0.16233,0.87556 0.33798,1.80165 0.67329,3.15357 0.26613,1.06452 0.29008,1.29071 0.55887,3.57407 0.10379,0.88624 0.24483,2.06248 0.44177,3.68585 0.57749,4.67051 0.89417,7.24392 1.00329,8.86995 0,0.0905 0,0.17568 0.016,0.26617 -0.64402,0.83029 -1.43175,1.83089 -2.46964,3.11629 -1.53022,1.89479 -2.29933,2.79167 -3.111007,3.73906 -0.81168,0.94745 -1.69255,1.97202 -3.40374,4.07705 -3.90407,4.80626 -5.85477,7.21733 -7.66974,10.03826 -2.243446,3.51819 -3.606002,6.40564 -5.184131,9.75086 l -0.154347,0.32734 c -1.479661,3.13491 -3.009884,6.38699 -4.313897,10.8739 -1.522237,5.23732 -1.596755,8.17001 -1.527563,9.9238 0.09315,2.21147 0.210243,4.96586 2.091748,7.71763 0.620075,0.91017 2.512226,3.6752 6.171451,4.4576 a 8.7954482,8.7954482 0 0 0 1.836269,0.19431 c 2.54682,0 4.52413,-1.09649 5.35977,-1.56488 2.59206,-1.44238 3.85083,-3.38505 5.93193,-6.60792 a 49.203946,49.203946 0 0 0 4.085027,-7.71757 c 1.35191,-3.29999 1.94804,-5.85478 2.8502,-9.72426 a 134.02347,134.02347 0 0 0 2.50158,-13.83851 c 0.53226,-4.25804 0.6733,-7.26789 0.88088,-11.44339 0.2475,-4.94464 0.40983,-8.18605 0.24217,-12.05021 l 0.68661,-0.90746 c 0.982,-1.3067 1.75908,-2.33924 3.37447,-4.2367 2.05449,-2.41376 4.53744,-5.10164 6.99111,-7.56065 1.69256,-1.69789 4.25801,-4.25799 7.83474,-7.26789 1.30667,-1.09376 1.97731,-1.59674 4.79028,-3.72573 l 3.97057,-3.01519 c 2.00661,-1.5276 5.52745,-4.06641 7.77619,-5.70839 a 75.374733,75.374733 0 0 1 12.03952,40.97001 c 0,41.80031 -34.01883,75.81385 -75.821818,75.81385 z m 24.337172,-79.33204 c -0.0426,1.96665 -0.14903,4.09303 -0.28475,6.78887 -0.20492,4.09032 -0.35395,7.04702 -0.85693,11.15597 a 129.95973,129.95973 0 0 1 -2.41642,13.40739 c -0.96071,4.12494 -1.474327,6.23531 -2.661247,9.11215 a 45.063032,45.063032 0 0 1 -3.72576,7.05762 c -1.98529,3.07378 -2.85552,4.35653 -4.50284,5.26931 -0.79838,0.44178 -2.44037,1.3679 -4.391072,0.9474 -2.078445,-0.44442 -3.241411,-2.14498 -3.677857,-2.78633 -1.141677,-1.67391 -1.290711,-3.30795 -1.389176,-5.60723 -0.06121,-1.46638 0.01328,-3.95735 1.370547,-8.62516 1.216192,-4.1888 2.610691,-7.14814 4.087691,-10.27779 l 0.154353,-0.32732 c 1.580784,-3.35317 2.831574,-6.00109 4.936624,-9.30108 1.68192,-2.62933 3.5927,-4.97922 7.40096,-9.66566 1.676577,-2.06248 2.528177,-3.05511 3.334537,-3.99187 0.71322,-0.85429 1.40781,-1.6633 2.62134,-3.15627 z"
       id="path48-2"
       style="display:inline;fill:#353c52;stroke-width:0.26458332"
       inkscape:export-xdpi="34.214508"
       inkscape:export-ydpi="34.214508" />
  </g>
</svg>
